<?xml version="1.0" standalone="no"?>
<!DOCTYPE svg PUBLIC "-//W3C//DTD SVG 20010904//EN"
 "http://www.w3.org/TR/2001/REC-SVG-20010904/DTD/svg10.dtd">
<svg version="1.0" xmlns="http://www.w3.org/2000/svg"
 width="340.000000pt" height="336.000000pt" viewBox="0 0 340.000000 336.000000"
 preserveAspectRatio="xMidYMid meet">

<g transform="translate(0.000000,336.000000) scale(0.100000,-0.100000)"
fill="#000000" stroke="none">
<path d="M0 1680 l0 -1680 1700 0 1700 0 0 1680 0 1680 -1700 0 -1700 0 0
-1680z m1650 1550 c0 -5 -7 -10 -15 -10 -8 0 -15 5 -15 10 0 6 7 10 15 10 8 0
15 -4 15 -10z m58 2 c9 -5 27 -14 39 -20 43 -23 70 -12 36 14 -17 13 -17 13 0
14 10 0 20 -7 24 -16 4 -12 14 -14 35 -10 21 4 30 1 35 -10 9 -25 -11 -38 -36
-22 -18 11 -23 11 -30 0 -7 -11 -14 -11 -43 1 -20 8 -40 12 -44 7 -5 -4 -22 5
-39 21 -24 23 -26 29 -12 29 9 0 25 -4 35 -8z m-202 -28 c3 -36 8 -38 43 -16
31 19 32 20 9 26 -14 5 -18 9 -10 13 7 3 20 1 30 -3 9 -4 21 -8 26 -8 20 -2
17 -28 -3 -33 -21 -5 -21 -7 -5 -24 25 -28 8 -36 -19 -11 -24 23 -47 29 -47
13 0 -17 -34 -20 -84 -7 -52 14 -52 23 2 22 31 -1 39 10 33 47 0 4 5 7 12 7 6
0 13 -12 13 -26z m469 -1 c3 -10 2 -19 -4 -21 -5 -2 -7 -10 -4 -18 4 -10 -4
-14 -30 -14 -20 0 -39 5 -42 10 -4 6 7 10 24 10 21 0 31 5 31 15 0 11 -8 13
-30 9 -28 -6 -39 4 -23 19 14 15 71 7 78 -10z m-540 -3 c-3 -5 -13 -10 -21
-10 -8 0 -14 5 -14 10 0 6 9 10 21 10 11 0 17 -4 14 -10z m616 0 c5 0 9 -4 9
-10 0 -16 -26 -12 -41 7 -12 15 -12 16 4 10 10 -4 23 -7 28 -7z m-676 -21 c8
-24 -10 -48 -25 -33 -10 10 -2 54 10 54 5 0 12 -9 15 -21z m296 5 c21 -25 22
-61 3 -68 -10 -4 -22 -2 -27 3 -7 7 -5 12 6 17 23 8 22 24 -1 24 -26 0 -34 11
-21 27 15 17 24 17 40 -3z m-361 -19 c0 -8 5 -15 11 -15 6 0 9 -7 5 -15 -4
-11 1 -15 19 -15 38 0 38 -17 0 -22 -24 -3 -35 0 -35 9 0 7 -5 13 -11 13 -6 0
-9 7 -6 14 4 9 -2 17 -14 21 -27 9 -24 25 6 25 16 0 25 -6 25 -15z m460 -11
c0 -8 -4 -14 -8 -14 -5 0 -14 -11 -20 -25 -15 -32 -36 -34 -26 -2 4 12 10 24
14 27 3 3 9 13 13 23 8 20 27 14 27 -9z m246 10 c-3 -9 -6 -20 -6 -25 0 -5 -4
-9 -10 -9 -5 0 -10 11 -10 25 0 16 6 25 16 25 11 0 14 -5 10 -16z m48 -17 c25
-22 26 -25 10 -38 -12 -9 -15 -10 -10 -1 4 7 0 15 -11 19 -21 8 -34 24 -27 35
7 11 8 11 38 -15z m46 8 c0 -8 5 -15 11 -15 6 0 8 7 5 16 -5 14 -1 15 31 9 38
-6 70 -25 44 -25 -7 0 -9 -5 -6 -10 4 -6 15 -8 25 -5 10 3 21 1 25 -5 3 -5 21
-10 40 -10 19 0 37 -4 40 -10 3 -5 0 -10 -8 -10 -8 0 -18 -11 -21 -25 -5 -20
-10 -24 -24 -16 -22 11 -90 7 -105 -8 -13 -13 -37 -15 -37 -2 0 5 7 17 16 26
18 18 7 40 -27 50 -10 4 -19 13 -19 21 0 8 -4 14 -10 14 -5 0 -10 5 -10 10 0
6 7 10 15 10 8 0 15 -7 15 -15z m-902 -20 c-2 -5 -11 -9 -20 -8 -23 3 -25 -42
-3 -51 13 -5 12 -9 -5 -26 -11 -11 -28 -20 -37 -20 -17 1 -17 1 0 14 9 7 17
18 17 25 0 16 -35 14 -50 -4 -7 -8 -18 -15 -24 -15 -6 0 -24 -12 -38 -27 -98
-101 -127 -127 -134 -120 -4 4 7 22 24 40 41 42 40 51 -4 44 -30 -5 -34 -4
-24 8 10 12 10 15 0 15 -10 0 -10 3 0 15 7 8 23 15 35 15 12 0 28 7 36 16 21
26 72 48 107 45 32 -2 73 13 71 27 -3 18 3 23 26 20 14 -2 24 -7 23 -13z m222
6 c0 -11 -30 -19 -48 -14 -6 3 -10 9 -6 14 7 12 54 12 54 0z m414 3 c9 -3 16
-10 16 -16 0 -14 -53 -5 -58 10 -4 13 16 16 42 6z m-274 -14 c0 -5 -4 -10 -9
-10 -6 0 -13 5 -16 10 -3 6 1 10 9 10 9 0 16 -4 16 -10z m400 0 c0 -5 11 -10
25 -10 16 0 25 -6 25 -15 0 -8 -6 -15 -14 -15 -7 0 -19 7 -26 15 -7 8 -19 15
-26 15 -8 0 -14 5 -14 10 0 6 7 10 15 10 8 0 15 -4 15 -10z m-476 -9 c5 -8
-34 -41 -49 -41 -13 0 -3 30 13 39 21 13 29 13 36 2z m431 -1 c11 -17 -5 -32
-21 -19 -8 6 -14 15 -14 20 0 12 27 11 35 -1z m-667 -12 c-3 -7 -13 -13 -23
-13 -10 0 -20 6 -22 13 -3 7 5 12 22 12 17 0 25 -5 23 -12z m287 -8 c3 -5 -1
-10 -9 -10 -8 0 -18 5 -21 10 -3 6 1 10 9 10 8 0 18 -4 21 -10z m105 -3 c0
-19 -10 -27 -26 -20 -11 4 -12 9 -3 19 15 18 29 18 29 1z m200 -7 c0 -5 -11
-10 -25 -10 -14 0 -25 5 -25 10 0 6 11 10 25 10 14 0 25 -4 25 -10z m-560 -14
c0 -15 -18 -31 -26 -23 -7 7 7 37 17 37 5 0 9 -6 9 -14z m134 5 c3 -4 3 -11 0
-14 -8 -8 -34 3 -34 14 0 11 27 12 34 0z m491 -1 c3 -5 -3 -10 -14 -10 -12 0
-21 5 -21 10 0 6 6 10 14 10 8 0 18 -4 21 -10z m195 0 c0 -9 -41 -18 -58 -12
-7 2 -10 7 -7 11 6 11 65 12 65 1z m-540 -10 c0 -5 -4 -10 -10 -10 -5 0 -10 5
-10 10 0 6 5 10 10 10 6 0 10 -4 10 -10z m840 -10 c19 -15 21 -20 9 -20 -9 0
-27 9 -40 20 -32 26 -3 27 31 0z m-1060 6 c0 -11 -19 -15 -25 -6 -3 5 1 10 9
10 9 0 16 -2 16 -4z m160 -5 c0 -16 -12 -41 -20 -41 -4 0 -7 11 -7 25 0 15 5
25 13 25 8 0 14 -4 14 -9z m180 -1 c0 -5 -7 -10 -16 -10 -8 0 -12 5 -9 10 3 6
10 10 16 10 5 0 9 -4 9 -10z m328 -7 c19 -19 23 -53 7 -53 -6 0 -11 10 -11 22
-1 12 -7 24 -13 26 -11 4 -16 22 -6 22 3 0 14 -8 23 -17z m-428 -1 c0 -13 -12
-22 -22 -16 -10 6 -1 24 13 24 5 0 9 -4 9 -8z m160 -2 c0 -5 -7 -10 -15 -10
-8 0 -15 5 -15 10 0 6 7 10 15 10 8 0 15 -4 15 -10z m110 0 c0 -5 -7 -10 -16
-10 -8 0 -12 5 -9 10 3 6 10 10 16 10 5 0 9 -4 9 -10z m105 0 c-3 -5 -10 -10
-16 -10 -5 0 -9 5 -9 10 0 6 7 10 16 10 8 0 12 -4 9 -10z m365 0 c0 -5 -7 -10
-15 -10 -8 0 -15 5 -15 10 0 6 7 10 15 10 8 0 15 -4 15 -10z m-1080 -15 c0 -8
0 -18 1 -22 0 -4 -5 -9 -12 -12 -8 -2 -10 2 -6 13 5 13 0 16 -24 16 -18 0 -28
4 -24 10 10 16 65 12 65 -5z m106 -30 c-6 -17 -66 -21 -66 -5 0 6 11 10 24 10
13 0 27 8 31 18 9 21 20 -1 11 -23z m269 25 c3 -5 -1 -10 -10 -10 -9 0 -13 5
-10 10 3 6 8 10 10 10 2 0 7 -4 10 -10z m70 0 c3 -5 -1 -10 -9 -10 -9 0 -16 5
-16 10 0 6 4 10 9 10 6 0 13 -4 16 -10z m215 0 c0 -5 -7 -10 -15 -10 -8 0 -15
5 -15 10 0 6 7 10 15 10 8 0 15 -4 15 -10z m340 -6 c0 -9 7 -22 16 -29 9 -6
15 -18 12 -25 -3 -10 -10 -8 -27 9 -16 16 -30 21 -47 17 -17 -5 -24 -2 -24 9
0 8 9 15 19 15 11 0 23 5 26 10 10 16 25 12 25 -6z m120 6 c0 -5 -2 -10 -4
-10 -3 0 -8 5 -11 10 -3 6 -1 10 4 10 6 0 11 -4 11 -10z m98 -8 c2 -7 -2 -10
-12 -6 -9 3 -16 11 -16 16 0 13 23 5 28 -10z m-369 -13 c-8 -5 -21 -9 -29 -9
-12 1 -11 4 4 15 10 8 23 12 29 8 5 -3 3 -9 -4 -14z m321 11 c0 -5 -4 -10 -10
-10 -5 0 -10 5 -10 10 0 6 5 10 10 10 6 0 10 -4 10 -10z m-1330 -22 c0 -28
-16 -55 -26 -45 -4 3 -1 13 5 21 8 10 9 16 1 21 -11 7 -4 25 11 25 5 0 9 -10
9 -22z m1065 -1 c0 -16 -20 -26 -20 -9 0 4 -4 13 -9 20 -6 10 -3 13 10 10 11
-2 19 -11 19 -21z m202 8 c8 -22 -2 -28 -33 -21 -25 7 -26 8 -8 21 25 19 33
18 41 0z m-1207 -11 c0 -9 -7 -14 -17 -12 -25 5 -28 28 -4 28 12 0 21 -6 21
-16z m280 6 c0 -5 -7 -10 -15 -10 -8 0 -15 5 -15 10 0 6 7 10 15 10 8 0 15 -4
15 -10z m-540 -10 c0 -5 -7 -10 -16 -10 -8 0 -12 5 -9 10 3 6 10 10 16 10 5 0
9 -4 9 -10z m704 -11 c-3 -5 -10 -7 -15 -3 -5 3 -7 10 -3 15 3 5 10 7 15 3 5
-3 7 -10 3 -15z m397 6 c-1 -15 -24 -12 -29 3 -3 9 2 13 12 10 10 -1 17 -7 17
-13z m449 0 c-7 -8 -19 -15 -26 -15 -8 0 -14 7 -14 15 0 10 10 15 26 15 22 0
25 -2 14 -15z m63 1 c8 -20 -4 -57 -17 -53 -15 5 -17 67 -1 67 7 0 15 -6 18
-14z m-1278 -6 c-3 -5 -15 -10 -26 -10 -11 0 -17 5 -14 10 3 6 15 10 26 10 11
0 17 -4 14 -10z m279 -5 c-4 -8 1 -17 10 -21 9 -3 13 -10 10 -15 -9 -15 -37 7
-39 30 -1 12 4 21 11 21 8 0 11 -6 8 -15z m346 5 c0 -5 -4 -10 -10 -10 -5 0
-10 5 -10 10 0 6 5 10 10 10 6 0 10 -4 10 -10z m60 6 c0 -11 -19 -15 -25 -6
-3 5 1 10 9 10 9 0 16 -2 16 -4z m-990 -23 c-1 -20 -20 -28 -70 -29 -31 -1
-56 -6 -58 -13 -2 -6 -11 -11 -20 -10 -13 0 -12 4 7 17 46 33 141 56 141 35z
m810 -3 c0 -5 -4 -10 -10 -10 -5 0 -10 5 -10 10 0 6 5 10 10 10 6 0 10 -4 10
-10z m-705 -14 c12 -11 10 -17 -11 -36 -26 -25 -31 -21 -14 11 7 13 7 19 0 19
-5 0 -10 5 -10 10 0 14 19 12 35 -4z m1560 4 c3 -5 1 -10 -6 -10 -6 0 -18 -8
-25 -17 -9 -14 -16 -15 -24 -7 -9 9 -6 16 11 28 27 19 35 20 44 6z m-1395 -10
c0 -5 -7 -10 -16 -10 -8 0 -12 5 -9 10 3 6 10 10 16 10 5 0 9 -4 9 -10z m174
-11 c-3 -5 -10 -7 -15 -3 -5 3 -7 10 -3 15 3 5 10 7 15 3 5 -3 7 -10 3 -15z
m846 11 c0 -5 -5 -10 -11 -10 -5 0 -7 5 -4 10 3 6 8 10 11 10 2 0 4 -4 4 -10z
m223 3 c9 -9 -12 -33 -29 -33 -17 0 -18 27 -1 33 18 8 23 8 30 0z m-493 -13
c0 -5 -7 -10 -15 -10 -8 0 -15 5 -15 10 0 6 7 10 15 10 8 0 15 -4 15 -10z
m370 1 c0 -12 -20 -25 -27 -18 -7 7 6 27 18 27 5 0 9 -4 9 -9z m-1460 -16 c0
-8 7 -15 16 -15 9 0 14 -6 11 -12 -2 -7 -13 -13 -25 -13 -11 0 -24 -4 -28 -8
-4 -4 -18 -7 -30 -7 -13 0 -26 -4 -29 -10 -7 -12 -25 -13 -25 -2 1 4 10 18 21
31 17 21 23 23 40 13 25 -16 32 -15 25 4 -3 9 -4 20 0 25 8 14 24 11 24 -6z
m1170 -6 c0 -6 -4 -7 -10 -4 -5 3 -10 11 -10 16 0 6 5 7 10 4 6 -3 10 -11 10
-16z m117 15 c-3 -3 -12 -4 -19 -1 -8 3 -5 6 6 6 11 1 17 -2 13 -5z m-1077
-14 c0 -5 -7 -10 -16 -10 -8 0 -12 5 -9 10 3 6 10 10 16 10 5 0 9 -4 9 -10z
m520 -5 c0 -9 -6 -12 -15 -9 -8 4 -15 10 -15 15 0 5 7 9 15 9 8 0 15 -7 15
-15z m790 5 c0 -5 -7 -10 -15 -10 -8 0 -15 5 -15 10 0 6 7 10 15 10 8 0 15 -4
15 -10z m130 -10 c8 -16 8 -20 -4 -20 -9 0 -20 9 -26 20 -8 16 -8 20 4 20 9 0
20 -9 26 -20z m130 5 c0 -8 -7 -15 -15 -15 -13 0 -14 -4 -4 -21 6 -12 14 -17
18 -12 3 6 16 13 29 17 16 6 22 3 22 -8 0 -9 -7 -16 -15 -16 -26 0 -17 -37 9
-42 29 -6 43 17 25 38 -19 23 6 16 27 -7 18 -20 18 -21 1 -34 -16 -12 -16 -13
-1 -19 13 -5 14 -10 6 -18 -8 -8 -18 -5 -37 11 -15 11 -32 18 -37 15 -11 -7
-68 54 -68 72 0 7 -5 14 -12 16 -9 3 -8 9 2 21 19 20 50 22 50 2z m-1880 -21
c0 -8 -9 -14 -20 -14 -22 0 -26 10 -8 28 13 13 28 7 28 -14z m540 16 c0 -5 -4
-10 -10 -10 -5 0 -10 5 -10 10 0 6 5 10 10 10 6 0 10 -4 10 -10z m970 6 c0 -3
-4 -8 -10 -11 -5 -3 -10 -1 -10 4 0 6 5 11 10 11 6 0 10 -2 10 -4z m296 -20
c10 -8 16 -17 12 -21 -11 -11 -48 5 -48 21 0 18 11 18 36 0z m-1383 -38 c-3
-6 -12 -3 -20 5 -9 9 -12 20 -8 28 6 9 11 8 21 -6 7 -10 11 -22 7 -27z m752
32 c3 -5 -1 -10 -10 -10 -9 0 -13 5 -10 10 3 6 8 10 10 10 2 0 7 -4 10 -10z
m235 0 c0 -5 -4 -10 -9 -10 -6 0 -13 5 -16 10 -3 6 1 10 9 10 9 0 16 -4 16
-10z m300 0 c0 -5 -4 -10 -9 -10 -6 0 -13 5 -16 10 -3 6 1 10 9 10 9 0 16 -4
16 -10z m-1750 -25 c13 -16 6 -35 -15 -35 -18 0 -26 15 -19 34 8 20 18 20 34
1z m230 5 c0 -5 -11 -9 -25 -8 -14 1 -25 6 -25 10 0 4 11 8 25 8 14 0 25 -4
25 -10z m150 -5 c0 -8 -4 -15 -9 -15 -13 0 -22 16 -14 24 11 11 23 6 23 -9z
m273 -5 c-3 -11 -8 -20 -12 -20 -4 0 -7 9 -8 20 -1 11 4 20 12 20 8 0 11 -7 8
-20z m827 10 c0 -5 -4 -10 -10 -10 -5 0 -10 5 -10 10 0 6 5 10 10 10 6 0 10
-4 10 -10z m204 -5 c3 -8 18 -15 33 -16 l28 -1 -29 -9 c-32 -9 -56 3 -56 27 0
19 16 18 24 -1z m-1433 -18 c-13 -13 -26 -3 -16 12 3 6 11 8 17 5 6 -4 6 -10
-1 -17z m179 13 c0 -5 -7 -10 -15 -10 -8 0 -15 5 -15 10 0 6 7 10 15 10 8 0
15 -4 15 -10z m-322 -12 c-3 -7 -15 -15 -28 -16 -21 -3 -22 -2 -11 12 16 19
44 21 39 4z m1702 -9 c0 -6 -4 -7 -10 -4 -5 3 -10 11 -10 16 0 6 5 7 10 4 6
-3 10 -11 10 -16z m-1640 -8 c0 -6 -4 -13 -10 -16 -5 -3 -10 1 -10 9 0 9 5 16
10 16 6 0 10 -4 10 -9z m520 -1 c0 -5 -7 -10 -16 -10 -8 0 -12 5 -9 10 3 6 10
10 16 10 5 0 9 -4 9 -10z m600 0 c0 -5 -4 -10 -10 -10 -5 0 -10 5 -10 10 0 6
5 10 10 10 6 0 10 -4 10 -10z m585 -10 c17 -19 17 -20 1 -20 -25 0 -58 19 -51
31 10 15 31 10 50 -11z m-1921 -5 c-4 -8 -11 -15 -18 -15 -6 0 -4 -5 4 -11 12
-9 12 -12 2 -16 -8 -3 -29 -18 -47 -34 -20 -18 -39 -27 -49 -23 -22 8 -20 24
3 24 29 0 70 37 64 59 -3 13 1 21 14 24 31 8 33 7 27 -8z m1637 2 c-1 -12 -15
-9 -19 4 -3 6 1 10 8 8 6 -3 11 -8 11 -12z m-1561 -12 c0 -8 5 -15 12 -15 27
0 -6 -15 -38 -17 -39 -2 -43 8 -11 30 28 20 37 21 37 2z m80 5 c0 -5 -5 -10
-11 -10 -5 0 -7 5 -4 10 3 6 8 10 11 10 2 0 4 -4 4 -10z m130 1 c0 -12 -20
-25 -27 -18 -7 7 6 27 18 27 5 0 9 -4 9 -9z m1421 -24 c-1 -12 -15 -9 -19 4
-3 6 1 10 8 8 6 -3 11 -8 11 -12z m445 -53 c3 -19 10 -37 15 -40 5 -3 9 -12 9
-20 0 -8 -4 -13 -9 -9 -14 8 -41 65 -41 87 0 11 -4 17 -9 13 -13 -7 -24 12
-16 26 11 17 44 -20 51 -57z m-1796 48 c0 -13 -12 -22 -22 -16 -10 6 -1 24 13
24 5 0 9 -4 9 -8z m1081 -15 c-13 -13 -26 -3 -16 12 3 6 11 8 17 5 6 -4 6 -10
-1 -17z m549 7 c0 -8 -4 -12 -10 -9 -5 3 -10 10 -10 16 0 5 5 9 10 9 6 0 10
-7 10 -16z m47 -18 c3 -18 0 -27 -8 -24 -7 2 -13 16 -15 32 -4 36 18 29 23 -8z
m-77 14 c0 -5 -4 -10 -9 -10 -6 0 -13 5 -16 10 -3 6 1 10 9 10 9 0 16 -4 16
-10z m-66 -15 c-4 -8 -12 -15 -20 -15 -8 0 -14 7 -14 15 0 8 9 15 20 15 13 0
18 -5 14 -15z m-1754 -5 c0 -5 -5 -10 -11 -10 -5 0 -7 5 -4 10 3 6 8 10 11 10
2 0 4 -4 4 -10z m1960 -16 c13 -32 13 -44 0 -44 -5 0 -10 6 -10 14 0 7 -7 19
-15 26 -19 16 -19 30 0 30 9 0 20 -12 25 -26z m-1870 6 c0 -5 -4 -10 -10 -10
-5 0 -10 5 -10 10 0 6 5 10 10 10 6 0 10 -4 10 -10z m290 0 c0 -5 -5 -10 -11
-10 -5 0 -7 5 -4 10 3 6 8 10 11 10 2 0 4 -4 4 -10z m1140 4 c0 -9 -31 -37
-36 -32 -9 9 8 38 22 38 8 0 14 -3 14 -6z m295 -14 c3 -5 2 -10 -4 -10 -5 0
-13 5 -16 10 -3 6 -2 10 4 10 5 0 13 -4 16 -10z m-1949 -15 c-21 -16 -56 -20
-56 -7 0 16 13 22 44 22 29 -1 30 -1 12 -15z m54 5 c0 -5 -7 -10 -16 -10 -8 0
-12 5 -9 10 3 6 10 10 16 10 5 0 9 -4 9 -10z m90 2 c0 -13 -12 -22 -22 -16
-10 6 -1 24 13 24 5 0 9 -4 9 -8z m145 -2 c-3 -5 -10 -10 -16 -10 -5 0 -9 5
-9 10 0 6 7 10 16 10 8 0 12 -4 9 -10z m1555 -11 c0 -5 -4 -9 -10 -9 -5 0 -10
7 -10 16 0 8 5 12 10 9 6 -3 10 -10 10 -16z m-1760 2 c0 -6 -4 -13 -10 -16 -5
-3 -10 1 -10 9 0 9 5 16 10 16 6 0 10 -4 10 -9z m170 -1 c0 -5 -4 -10 -10 -10
-5 0 -10 5 -10 10 0 6 5 10 10 10 6 0 10 -4 10 -10z m1560 -10 c0 -5 -4 -10
-10 -10 -5 0 -10 5 -10 10 0 6 5 10 10 10 6 0 10 -4 10 -10z m217 -7 c4 -11
-26 -27 -35 -19 -2 3 -2 12 2 21 6 18 27 16 33 -2z m187 -18 c17 -22 21 -32
11 -29 -8 3 -15 2 -15 -4 0 -5 -9 -12 -20 -15 -24 -6 -26 1 -4 17 12 9 13 17
5 39 -14 36 -9 34 23 -8z m-136 6 c3 -8 -1 -12 -9 -9 -7 2 -15 10 -17 17 -3 8
1 12 9 9 7 -2 15 -10 17 -17z m-2228 -11 c0 -11 -4 -20 -10 -20 -5 0 -10 9
-10 20 0 11 5 20 10 20 6 0 10 -9 10 -20z m1800 10 c0 -5 -4 -10 -9 -10 -6 0
-13 5 -16 10 -3 6 1 10 9 10 9 0 16 -4 16 -10z m-1750 -10 c0 -5 -7 -10 -16
-10 -8 0 -12 5 -9 10 3 6 10 10 16 10 5 0 9 -4 9 -10z m70 -5 c0 -8 -7 -15
-16 -15 -14 0 -14 3 -4 15 7 8 14 15 16 15 2 0 4 -7 4 -15z m-54 -42 c-2 -3
-9 -2 -15 2 -8 4 -7 13 1 28 l13 22 3 -23 c2 -13 1 -26 -2 -29z m1979 38 c3
-5 1 -12 -5 -16 -5 -3 -10 1 -10 9 0 18 6 21 15 7z m-1909 -28 c-10 -10 -19 5
-10 18 6 11 8 11 12 0 2 -7 1 -15 -2 -18z m2155 12 c-1 -15 -24 -12 -29 3 -3
9 2 13 12 10 10 -1 17 -7 17 -13z m-2056 -5 c-3 -5 -10 -10 -16 -10 -5 0 -9 5
-9 10 0 6 7 10 16 10 8 0 12 -4 9 -10z m1993 -9 c3 -8 -1 -12 -9 -9 -7 2 -15
10 -17 17 -3 8 1 12 9 9 7 -2 15 -10 17 -17z m-2261 -4 c10 4 14 2 11 -7 -6
-18 -20 -22 -37 -11 -8 5 -10 14 -5 22 5 9 9 10 11 2 3 -7 11 -9 20 -6z m192
-13 c-6 -7 -15 -11 -21 -8 -5 3 -4 12 3 20 6 7 15 11 21 8 5 -3 4 -12 -3 -20z
m2011 18 c0 -13 -39 -32 -45 -22 -3 6 1 10 9 10 9 0 16 5 16 10 0 6 5 10 10
10 6 0 10 -3 10 -8z m-190 -23 c0 -24 -23 -21 -28 4 -2 10 3 17 12 17 10 0 16
-9 16 -21z m-1600 1 c0 -5 -4 -10 -10 -10 -5 0 -10 5 -10 10 0 6 5 10 10 10 6
0 10 -4 10 -10z m-114 -17 c25 -33 14 -44 -20 -18 -10 7 -15 18 -11 24 9 15
16 14 31 -6z m2102 -2 c3 -10 -2 -13 -21 -9 -15 3 -24 2 -22 -3 3 -4 1 -10 -5
-14 -16 -10 -25 26 -9 36 19 13 51 7 57 -10z m45 5 c3 -7 9 -34 12 -60 9 -56
18 -64 40 -34 10 13 15 17 13 9 -2 -8 4 -23 14 -33 20 -20 24 -38 8 -38 -5 0
-10 4 -10 9 0 6 -14 11 -32 13 -28 3 -34 9 -48 48 -8 25 -19 51 -23 58 -10 15
-2 42 12 42 5 0 11 -6 14 -14z m-2346 -11 c3 -9 -3 -25 -12 -35 -21 -23 -44
-28 -25 -5 6 8 9 19 5 25 -7 12 2 30 16 30 5 0 12 -7 16 -15z m-100 -20 c-7
-16 -37 -21 -37 -5 0 10 32 31 39 25 2 -2 1 -11 -2 -20z m193 15 c0 -5 -4 -10
-10 -10 -5 0 -10 5 -10 10 0 6 5 10 10 10 6 0 10 -4 10 -10z m1020 -11 c0 -5
-7 -9 -15 -9 -15 0 -20 12 -9 23 8 8 24 -1 24 -14z m1045 11 c3 -5 -1 -10 -10
-10 -9 0 -13 5 -10 10 3 6 8 10 10 10 2 0 7 -4 10 -10z m45 -35 c-12 -14 -40
-21 -40 -10 0 3 8 13 18 24 20 21 41 9 22 -14z m-2364 -2 c-10 -10 -19 5 -10
18 6 11 8 11 12 0 2 -7 1 -15 -2 -18z m104 19 c0 -13 -12 -22 -22 -16 -10 6
-1 24 13 24 5 0 9 -4 9 -8z m116 -19 c-10 -10 -19 5 -10 18 6 11 8 11 12 0 2
-7 1 -15 -2 -18z m2324 17 c0 -5 -2 -10 -4 -10 -3 0 -8 5 -11 10 -3 6 -1 10 4
10 6 0 11 -4 11 -10z m-70 -26 c0 -8 -4 -12 -10 -9 -5 3 -10 10 -10 16 0 5 5
9 10 9 6 0 10 -7 10 -16z m-2404 -20 c12 5 12 2 3 -17 -7 -12 -14 -17 -16 -10
-3 7 -11 9 -19 6 -17 -6 -18 1 -2 30 11 20 12 20 16 4 2 -11 9 -16 18 -13z
m1210 -82 c11 -68 21 -102 30 -102 18 0 27 -17 13 -26 -8 -4 -9 -3 -5 4 4 7 3
12 -1 12 -5 0 -9 -16 -10 -35 -1 -37 10 -46 25 -19 5 9 13 15 18 14 5 -1 10 4
13 11 2 6 -1 9 -7 6 -11 -8 -23 29 -15 49 7 18 14 18 39 -1 18 -14 18 -14 -3
-8 -17 4 -23 1 -23 -11 0 -24 31 -32 45 -12 7 9 16 13 19 8 3 -5 -19 -26 -49
-47 -34 -23 -55 -45 -55 -56 0 -11 1 -19 3 -19 1 0 32 30 67 66 36 37 59 64
53 60 -7 -4 -13 -5 -13 -3 0 5 77 57 85 57 4 0 -8 -20 -25 -43 l-31 -44 25
-48 c14 -26 26 -56 26 -66 0 -10 8 -20 18 -22 43 -12 -29 -6 -112 9 l-89 15
-26 -25 -26 -26 160 1 c106 1 152 4 135 10 -20 7 -17 8 15 4 22 -3 48 -5 58
-5 39 0 13 -18 -35 -24 -81 -11 -98 -17 -99 -35 -1 -14 -2 -13 -6 2 -2 9 -11
17 -19 17 -22 0 -29 -30 -10 -48 12 -13 16 -13 16 -2 0 7 2 11 5 8 13 -13 -8
-35 -29 -31 -28 6 -42 -12 -26 -33 11 -12 14 -12 27 3 13 16 13 16 3 -5 -9
-19 -6 -29 20 -67 36 -52 30 -56 -24 -15 -33 25 -42 28 -60 18 -19 -10 -19 -9
-8 4 15 19 0 33 -23 24 -17 -6 -20 -36 -4 -36 5 0 7 -4 4 -10 -16 -26 -38 3
-28 39 3 11 10 18 15 14 6 -3 9 0 7 6 -3 7 -8 12 -12 12 -18 -2 -49 42 -44 65
3 16 -4 30 -20 46 l-25 23 2 -175 c3 -197 2 -225 -5 -219 -2 3 -10 40 -16 83
-8 56 -16 79 -28 83 -48 15 -73 27 -63 31 17 5 15 39 -2 45 -22 9 -38 -14 -23
-32 11 -14 10 -14 -5 -2 -15 11 -24 9 -68 -23 -27 -20 -50 -33 -50 -30 0 3 14
26 32 50 l32 44 -23 40 c-12 22 -20 46 -18 53 3 6 6 4 6 -7 1 -16 3 -16 17 -5
8 7 13 21 11 31 -4 14 1 18 24 18 36 0 36 -6 4 -32 -14 -11 -23 -23 -20 -28 3
-5 -2 -10 -10 -12 -14 -3 -14 -5 -1 -23 20 -28 43 -7 27 24 -10 19 -9 21 12
21 30 0 55 25 35 34 -7 3 6 4 29 2 34 -3 46 0 64 20 l22 24 -159 -1 c-95 -1
-147 -4 -129 -9 39 -10 11 -12 -49 -4 -25 4 -46 10 -46 14 0 4 26 11 58 14 74
9 92 15 92 29 0 7 11 36 25 66 23 50 24 56 10 77 -55 85 -55 82 0 42 l51 -37
33 21 32 21 15 -21 c22 -32 42 -16 49 39 4 28 9 48 12 45 2 -2 2 -29 -2 -59
-5 -42 -11 -54 -21 -50 -8 3 -14 0 -14 -6 0 -6 5 -11 11 -11 7 0 9 -18 4 -58
-6 -51 -4 -60 15 -77 l22 -20 -2 175 c-4 264 -1 276 26 112z m1134 93 c10 -12
10 -15 -4 -15 -9 0 -16 7 -16 15 0 8 2 15 4 15 2 0 9 -7 16 -15z m-2420 -5 c0
-6 9 -21 20 -32 22 -24 22 -41 -2 -46 -10 -2 -17 8 -22 29 -6 30 -7 31 -24 16
-28 -25 -34 -20 -17 13 15 29 45 42 45 20z m2250 -10 c0 -5 -2 -10 -4 -10 -3
0 -8 5 -11 10 -3 6 -1 10 4 10 6 0 11 -4 11 -10z m226 -25 c4 -14 3 -29 0 -33
-9 -8 -26 18 -26 41 0 26 19 20 26 -8z m-2354 -27 c-7 -7 -12 -8 -12 -2 0 14
12 26 19 19 2 -3 -1 -11 -7 -17z m138 12 c0 -5 -4 -10 -10 -10 -5 0 -10 5 -10
10 0 6 5 10 10 10 6 0 10 -4 10 -10z m-108 -22 c-7 -7 -12 -8 -12 -2 0 14 12
26 19 19 2 -3 -1 -11 -7 -17z m2268 12 c0 -5 -4 -10 -10 -10 -5 0 -10 5 -10
10 0 6 5 10 10 10 6 0 10 -4 10 -10z m-2487 -20 c-3 -12 -8 -19 -11 -16 -5 6
5 36 12 36 2 0 2 -9 -1 -20z m1028 -3 c-13 -13 -26 -3 -16 12 3 6 11 8 17 5 6
-4 6 -10 -1 -17z m629 2 c0 -5 -4 -9 -10 -9 -5 0 -10 7 -10 16 0 8 5 12 10 9
6 -3 10 -10 10 -16z m-1620 2 c0 -12 -20 -25 -27 -18 -7 7 6 27 18 27 5 0 9
-4 9 -9z m96 -28 c-11 -11 -19 6 -11 24 8 17 8 17 12 0 3 -10 2 -21 -1 -24z
m117 12 c-3 -8 -9 -15 -14 -15 -10 0 -12 24 -3 33 11 11 24 -3 17 -18z m2264
-1 c-9 -9 -28 6 -21 18 4 6 10 6 17 -1 6 -6 8 -13 4 -17z m-2450 -58 c-13 -32
-27 -15 -23 27 5 56 6 57 18 20 6 -18 8 -39 5 -47z m2213 64 c0 -5 -4 -10 -10
-10 -5 0 -10 5 -10 10 0 6 5 10 10 10 6 0 10 -4 10 -10z m160 0 c0 -5 -4 -10
-10 -10 -5 0 -10 5 -10 10 0 6 5 10 10 10 6 0 10 -4 10 -10z m225 -13 c0 -26
-20 -25 -23 2 -3 16 1 22 10 19 7 -3 13 -12 13 -21z m35 8 c0 -8 -4 -15 -10
-15 -5 0 -10 7 -10 15 0 8 5 15 10 15 6 0 10 -7 10 -15z m-80 -12 c0 -10 3
-28 6 -40 4 -13 2 -23 -4 -23 -5 0 -14 18 -20 40 -8 32 -7 40 4 40 8 0 14 -8
14 -17z m-280 -3 c0 -5 -4 -10 -10 -10 -5 0 -10 5 -10 10 0 6 5 10 10 10 6 0
10 -4 10 -10z m250 -11 c0 -5 -4 -9 -10 -9 -5 0 -10 7 -10 16 0 8 5 12 10 9 6
-3 10 -10 10 -16z m-2594 -14 c4 -8 13 -15 21 -15 8 0 12 -4 9 -9 -4 -7 -47
-8 -74 -2 -1 1 2 10 8 21 13 24 28 26 36 5z m2709 -1 c24 -16 36 -64 15 -64
-13 0 -28 32 -22 49 3 8 0 11 -7 7 -6 -4 -11 -22 -11 -40 0 -20 -8 -40 -20
-51 -11 -10 -20 -27 -20 -37 0 -11 -5 -16 -11 -13 -6 4 -8 13 -5 21 3 7 1 16
-4 19 -17 11 -11 23 16 29 22 6 25 10 19 37 -4 18 -2 36 5 44 15 19 15 19 45
-1z m-2580 -12 c0 -18 -20 -15 -23 4 -3 10 1 15 10 12 7 -3 13 -10 13 -16z
m2420 9 c7 -12 -12 -24 -25 -16 -11 7 -4 25 10 25 5 0 11 -4 15 -9z m-2350
-21 c-3 -5 -11 -10 -16 -10 -6 0 -7 5 -4 10 3 6 11 10 16 10 6 0 7 -4 4 -10z
m2405 0 c0 -5 -4 -10 -10 -10 -5 0 -10 5 -10 10 0 6 5 10 10 10 6 0 10 -4 10
-10z m-120 -20 c0 -5 -4 -10 -10 -10 -5 0 -10 5 -10 10 0 6 5 10 10 10 6 0 10
-4 10 -10z m-2426 -40 c-14 -14 -39 14 -29 31 5 8 12 6 23 -5 11 -11 13 -19 6
-26z m216 31 c0 -6 -4 -13 -10 -16 -5 -3 -10 1 -10 9 0 9 5 16 10 16 6 0 10
-4 10 -9z m-294 -10 c-4 -5 0 -11 6 -14 10 -4 11 -7 1 -18 -11 -11 -13 -11
-13 0 0 10 -6 9 -25 -3 -29 -19 -31 -15 -9 19 15 23 53 38 40 16z m2454 -6 c0
-8 -4 -15 -10 -15 -5 0 -10 7 -10 15 0 8 5 15 10 15 6 0 10 -7 10 -15z m160
-1 c0 -8 -4 -12 -10 -9 -5 3 -10 10 -10 16 0 5 5 9 10 9 6 0 10 -7 10 -16z
m-80 -4 c0 -5 -4 -10 -10 -10 -5 0 -10 5 -10 10 0 6 5 10 10 10 6 0 10 -4 10
-10z m-2390 -10 c0 -5 -4 -10 -10 -10 -5 0 -10 5 -10 10 0 6 5 10 10 10 6 0
10 -4 10 -10z m2610 0 c0 -5 -4 -10 -10 -10 -5 0 -10 5 -10 10 0 6 5 10 10 10
6 0 10 -4 10 -10z m34 -12 c9 -36 7 -48 -9 -48 -10 0 -15 11 -15 35 0 39 14
47 24 13z m-2742 -70 c-6 -6 -16 -7 -22 -3 -8 5 -9 10 -1 18 6 6 11 21 11 32
0 39 15 38 18 0 2 -21 -1 -42 -6 -47z m2548 46 c0 -8 -4 -12 -10 -9 -5 3 -10
10 -10 16 0 5 5 9 10 9 6 0 10 -7 10 -16z m-140 -2 c0 -13 -12 -22 -22 -16
-10 6 -1 24 13 24 5 0 9 -4 9 -8z m284 0 c2 -4 1 -14 -4 -22 -7 -11 -12 -12
-21 -3 -6 6 -8 16 -5 22 8 13 23 14 30 3z m-2514 -12 c0 -5 -5 -10 -11 -10 -5
0 -7 5 -4 10 3 6 8 10 11 10 2 0 4 -4 4 -10z m-250 -13 c0 -13 -58 -72 -65
-65 -6 6 8 58 16 58 5 0 6 -8 3 -17 -3 -10 2 -6 11 10 17 29 35 36 35 14z
m140 4 c0 -5 -6 -11 -12 -14 -10 -3 -10 -9 0 -26 18 -31 15 -38 -8 -13 -17 18
-19 25 -8 42 13 21 28 27 28 11z m80 -1 c0 -5 -4 -10 -10 -10 -5 0 -10 5 -10
10 0 6 5 10 10 10 6 0 10 -4 10 -10z m2340 -21 c0 -5 -7 -9 -15 -9 -15 0 -20
12 -9 23 8 8 24 -1 24 -14z m-2533 -15 c-9 -9 -28 6 -21 18 4 6 10 6 17 -1 6
-6 8 -13 4 -17z m2647 5 c-3 -5 -10 -6 -16 -3 -7 5 -9 1 -5 -9 3 -9 2 -19 -4
-22 -18 -12 -22 26 -3 40 20 14 38 10 28 -6z m61 -9 c3 -5 -1 -10 -9 -10 -9 0
-16 5 -16 10 0 6 4 10 9 10 6 0 13 -4 16 -10z m93 -12 c2 -4 8 -6 13 -3 11 8
-2 -28 -14 -36 -5 -3 -1 -23 7 -44 14 -32 18 -35 31 -25 12 10 15 10 16 -1 1
-8 3 -27 5 -44 2 -16 -2 -35 -7 -41 -6 -7 -9 -25 -6 -41 l4 -28 8 24 c8 23 9
24 16 5 15 -37 11 -57 -11 -51 -11 3 -20 0 -20 -6 0 -6 -3 -7 -7 -4 -3 4 -12
2 -18 -3 -9 -8 -15 -6 -19 6 -4 10 -1 21 5 25 7 4 15 30 19 57 5 45 3 54 -22
88 -21 28 -28 49 -28 82 l0 45 -20 -23 c-11 -13 -23 -20 -27 -16 -4 4 -2 11 5
15 7 4 12 12 11 17 -1 5 -1 12 0 17 1 10 55 -3 59 -15z m-208 -4 c0 -8 -4 -12
-10 -9 -5 3 -10 10 -10 16 0 5 5 9 10 9 6 0 10 -7 10 -16z m-2570 -9 c0 -8 -4
-15 -10 -15 -5 0 -10 -7 -10 -15 0 -9 -6 -12 -15 -9 -21 8 -54 -34 -55 -68 0
-16 -5 -28 -11 -28 -8 0 -10 16 -6 47 5 50 37 89 64 79 8 -3 16 1 19 9 8 19
24 19 24 0z m2710 -55 c0 -17 -19 -11 -30 9 -17 33 -11 46 10 23 11 -12 20
-26 20 -32z m-2680 24 c0 -8 -5 -12 -10 -9 -6 4 -8 11 -5 16 9 14 15 11 15 -7z
m200 7 c0 -6 -4 -13 -10 -16 -5 -3 -10 1 -10 9 0 9 5 16 10 16 6 0 10 -4 10
-9z m680 -22 c0 -5 -7 -9 -15 -9 -15 0 -20 12 -9 23 8 8 24 -1 24 -14z m880 0
c0 -5 -4 -9 -10 -9 -5 0 -10 7 -10 16 0 8 5 12 10 9 6 -3 10 -10 10 -16z
m1024 5 c7 -19 -2 -37 -15 -29 -12 8 -12 45 0 45 5 0 12 -7 15 -16z m-2936
-27 c-7 -14 -13 -17 -16 -9 -6 19 6 44 18 37 7 -4 6 -14 -2 -28z m2692 8 c0
-8 -9 -15 -20 -15 -11 0 -20 7 -20 15 0 8 9 15 20 15 11 0 20 -7 20 -15z m80
5 c0 -5 -4 -10 -10 -10 -5 0 -10 5 -10 10 0 6 5 10 10 10 6 0 10 -4 10 -10z
m-2600 -10 c0 -5 -5 -10 -11 -10 -5 0 -7 5 -4 10 3 6 8 10 11 10 2 0 4 -4 4
-10z m2586 -38 c-10 -10 -39 25 -31 38 5 8 12 5 22 -10 8 -12 12 -24 9 -28z
m-2426 28 c0 -5 -4 -10 -10 -10 -5 0 -10 5 -10 10 0 6 5 10 10 10 6 0 10 -4
10 -10z m904 3 c-5 -5 -11 -11 -14 -14 -3 -4 -11 -1 -18 7 -11 12 -8 14 14 14
15 0 23 -3 18 -7z m1376 -3 c0 -5 -4 -10 -10 -10 -5 0 -10 5 -10 10 0 6 5 10
10 10 6 0 10 -4 10 -10z m-2500 -13 c0 -8 -8 -21 -18 -30 -14 -13 -21 -14 -30
-5 -16 16 -15 31 2 25 8 -3 17 1 20 9 7 18 26 18 26 1z m2771 -21 c9 -12 20
-44 23 -72 7 -48 6 -52 -16 -59 -35 -11 -53 -11 -56 0 -2 6 12 14 32 18 28 7
33 12 27 25 -5 10 -13 31 -18 47 -5 20 -16 31 -31 33 -12 2 -22 7 -22 11 0 25
42 24 61 -3z m-2731 5 c0 -6 -4 -13 -10 -16 -5 -3 -10 1 -10 9 0 9 5 16 10 16
6 0 10 -4 10 -9z m2635 -10 c3 -5 1 -12 -5 -16 -5 -3 -10 1 -10 9 0 18 6 21
15 7z m-2785 -20 c0 -11 -4 -23 -10 -26 -6 -4 -10 5 -10 19 0 14 5 26 10 26 6
0 10 -9 10 -19z m320 -2 c0 -5 -4 -9 -10 -9 -5 0 -10 7 -10 16 0 8 5 12 10 9
6 -3 10 -10 10 -16z m2290 11 c0 -5 -5 -10 -11 -10 -5 0 -7 5 -4 10 3 6 8 10
11 10 2 0 4 -4 4 -10z m-2540 -46 c0 -13 5 -24 10 -24 6 0 10 -7 10 -16 0 -9
-6 -14 -12 -12 -18 6 -41 56 -34 74 8 22 26 7 26 -22z m2794 13 c6 -9 6 -20 2
-24 -5 -4 -11 -3 -13 4 -3 8 -12 9 -28 3 -25 -10 -35 -5 -35 18 0 8 6 12 15 9
8 -4 17 -2 21 4 8 13 25 7 38 -14z m-2644 3 c0 -5 -4 -10 -10 -10 -5 0 -10 5
-10 10 0 6 5 10 10 10 6 0 10 -4 10 -10z m-254 -47 c-10 -26 -18 -8 -9 23 5
21 8 24 11 11 2 -10 1 -25 -2 -34z m2754 40 c-1 -21 -13 -52 -20 -48 -10 6 0
55 11 55 5 0 9 -3 9 -7z m-2694 -38 c-7 -29 -26 -34 -26 -7 0 18 20 45 28 37
2 -2 2 -16 -2 -30z m1484 -39 c-27 -12 -25 -36 3 -37 21 -1 21 -1 -3 -8 -14
-4 -26 -7 -28 -5 -2 1 0 28 3 59 l8 57 18 -29 c18 -27 18 -28 -1 -37z m-1360
40 c0 -3 -4 -8 -10 -11 -5 -3 -10 -1 -10 4 0 6 5 11 10 11 6 0 10 -2 10 -4z
m-30 -15 c0 -6 -4 -13 -10 -16 -5 -3 -10 1 -10 9 0 9 5 16 10 16 6 0 10 -4 10
-9z m120 0 c0 -6 -4 -13 -10 -16 -5 -3 -10 1 -10 9 0 9 5 16 10 16 6 0 10 -4
10 -9z m2560 -20 c0 -16 -13 -19 -31 -8 -26 16 -24 25 6 19 14 -2 25 -8 25
-11z m-2789 -11 c15 0 10 -30 -5 -36 -8 -3 -24 0 -36 6 -17 9 -19 14 -9 26 7
8 19 12 26 9 8 -3 19 -5 24 -5z m149 -9 c0 -6 -4 -13 -10 -16 -5 -3 -10 1 -10
9 0 9 5 16 10 16 6 0 10 -4 10 -9z m2535 -11 c3 -5 1 -10 -4 -10 -6 0 -11 5
-11 10 0 6 2 10 4 10 3 0 8 -4 11 -10z m-25 -10 c0 -5 -7 -10 -16 -10 -8 0
-12 5 -9 10 3 6 10 10 16 10 5 0 9 -4 9 -10z m-2570 -10 c0 -5 -4 -10 -10 -10
-5 0 -10 5 -10 10 0 6 5 10 10 10 6 0 10 -4 10 -10z m2490 0 c0 -5 -2 -10 -4
-10 -3 0 -8 5 -11 10 -3 6 -1 10 4 10 6 0 11 -4 11 -10z m-2620 -9 c0 -20 -28
-73 -34 -63 -7 12 13 72 25 72 5 0 9 -4 9 -9z m82 -6 c0 -5 -5 -11 -11 -13 -6
-2 -11 4 -11 13 0 9 5 15 11 13 6 -2 11 -8 11 -13z m2818 -15 c0 -11 -4 -20
-10 -20 -5 0 -10 2 -10 4 0 2 -3 11 -6 20 -4 11 -1 16 10 16 9 0 16 -8 16 -20z
m108 8 c18 -18 15 -25 -13 -25 -18 0 -25 5 -25 18 0 21 20 25 38 7z m-1501
-35 c-3 -10 -5 -4 -5 12 0 17 2 24 5 18 2 -7 2 -21 0 -30z m1464 -3 c13 -22
28 -40 34 -40 8 0 10 -10 7 -25 -4 -22 -8 -24 -35 -20 -17 3 -34 8 -38 11 -13
8 3 36 17 30 18 -7 17 4 -1 28 -14 18 -21 56 -11 56 3 0 15 -18 27 -40z
m-2931 -23 c0 -19 -1 -20 -20 -2 -11 10 -20 27 -20 38 0 19 1 20 20 2 11 -10
20 -27 20 -38z m2820 40 c0 -21 -12 -28 -27 -16 -19 16 -16 29 7 29 11 0 20
-6 20 -13z m-2772 -36 c3 -8 -1 -12 -9 -9 -7 2 -15 10 -17 17 -3 8 1 12 9 9 7
-2 15 -10 17 -17z m52 5 c0 -18 -17 -29 -30 -21 -8 5 -7 11 1 21 15 18 29 18
29 0z m72 -21 c3 -14 1 -25 -3 -25 -5 0 -9 3 -9 8 0 4 -3 18 -7 31 -4 16 -2
22 4 18 6 -4 13 -18 15 -32z m976 24 c-2 -6 -8 -10 -13 -10 -5 0 -11 4 -13 10
-2 6 4 11 13 11 9 0 15 -5 13 -11z m622 2 c0 -6 -4 -13 -10 -16 -5 -3 -10 1
-10 9 0 9 5 16 10 16 6 0 10 -4 10 -9z m1130 -17 c0 -16 -16 -19 -25 -4 -8 13
4 32 16 25 5 -4 9 -13 9 -21z m-180 1 c0 -8 -4 -15 -10 -15 -5 0 -10 7 -10 15
0 8 5 15 10 15 6 0 10 -7 10 -15z m-2500 -5 c0 -5 -4 -10 -10 -10 -5 0 -10 5
-10 10 0 6 5 10 10 10 6 0 10 -4 10 -10z m2650 -9 c0 -17 -12 -41 -21 -41 -10
0 -12 33 -2 43 9 10 23 9 23 -2z m-2928 -43 c-13 -13 -26 8 -17 30 6 16 7 16
17 -1 7 -13 7 -22 0 -29z m38 15 c0 -20 -3 -24 -11 -16 -7 7 -9 19 -6 27 10
24 17 19 17 -11z m31 -26 c-6 -15 -15 -27 -21 -27 -13 0 -13 1 7 46 18 43 31
26 14 -19z m2769 37 c0 -14 -3 -14 -15 -4 -8 7 -15 14 -15 16 0 2 7 4 15 4 8
0 15 -7 15 -16z m-2720 -28 c0 -14 -4 -28 -10 -31 -6 -4 -10 7 -10 24 0 17 5
31 10 31 6 0 10 -11 10 -24z m2670 14 c0 -5 -4 -10 -10 -10 -5 0 -10 5 -10 10
0 6 5 10 10 10 6 0 10 -4 10 -10z m-2570 -20 c0 -5 -4 -10 -10 -10 -5 0 -10 5
-10 10 0 6 5 10 10 10 6 0 10 -4 10 -10z m2500 0 c0 -5 -4 -10 -10 -10 -5 0
-10 5 -10 10 0 6 5 10 10 10 6 0 10 -4 10 -10z m180 -14 c0 -7 9 -21 20 -31
22 -20 27 -49 8 -43 -7 3 -15 15 -19 29 -4 13 -8 20 -8 14 -2 -16 -21 18 -21
38 0 10 5 15 10 12 6 -3 10 -12 10 -19z m69 -12 c14 -30 11 -37 -13 -28 -16 6
-23 54 -8 54 5 0 14 -12 21 -26z m60 2 c10 -12 8 -17 -8 -26 -27 -14 -28 -50
-1 -50 16 0 19 -5 16 -32 -2 -18 -4 -46 -5 -63 -1 -23 -3 -27 -11 -15 -5 8 -7
24 -4 35 5 16 3 15 -12 -5 -11 -14 -24 -34 -30 -45 -6 -10 -16 -21 -22 -23
-14 -4 -16 24 -2 33 5 3 17 22 27 42 15 33 15 36 0 48 -16 11 -16 15 -2 41 8
16 15 36 15 45 0 30 20 38 39 15z m-3029 -5 c0 -6 -4 -13 -10 -16 -5 -3 -10 1
-10 9 0 9 5 16 10 16 6 0 10 -4 10 -9z m36 -26 c6 -24 0 -44 -10 -34 -11 11
-17 59 -7 59 6 0 13 -11 17 -25z m116 -5 c1 -9 -1 -17 -7 -18 -5 -1 -11 10
-13 25 -4 29 13 23 20 -7z m2664 3 c-10 -10 -19 5 -10 18 6 11 8 11 12 0 2 -7
1 -15 -2 -18z m-1296 7 c0 -5 -7 -10 -15 -10 -8 0 -15 5 -15 10 0 6 7 10 15
10 8 0 15 -4 15 -10z m-1420 -20 c0 -5 -4 -10 -10 -10 -5 0 -10 -19 -10 -42
-1 -40 -2 -42 -15 -24 -20 26 -19 45 3 67 19 20 32 24 32 9z m175 1 c3 -5 1
-12 -5 -16 -5 -3 -10 1 -10 9 0 18 6 21 15 7z m-257 -39 c2 -12 8 -22 13 -22
5 0 9 -9 9 -19 0 -33 11 -50 27 -44 13 5 15 1 10 -26 -4 -18 -3 -30 2 -27 5 3
11 -7 14 -22 3 -15 9 -35 12 -44 11 -27 -10 -21 -23 6 -6 13 -14 40 -17 58 -7
35 -29 47 -39 21 -7 -18 -25 -17 -33 2 -3 9 2 22 12 29 13 9 16 20 11 39 -3
15 -10 26 -14 24 -9 -3 -12 7 -12 34 0 27 24 19 28 -9z m2862 18 c0 -5 -4 -10
-10 -10 -5 0 -10 5 -10 10 0 6 5 10 10 10 6 0 10 -4 10 -10z m-2540 -30 c0 -5
-4 -10 -10 -10 -5 0 -10 5 -10 10 0 6 5 10 10 10 6 0 10 -4 10 -10z m2535 1
c3 -5 1 -12 -5 -16 -5 -3 -10 1 -10 9 0 18 6 21 15 7z m39 -22 c-3 -5 0 -17 7
-25 6 -8 8 -18 4 -22 -4 -4 -10 -1 -12 6 -3 6 -9 10 -14 6 -10 -6 -13 39 -3
49 10 10 25 -3 18 -14z m65 5 c1 -1 0 -7 -3 -13 -8 -12 -46 7 -46 22 0 7 38 0
49 -9z m-2844 -12 c0 -18 -20 -15 -23 4 -3 10 1 15 10 12 7 -3 13 -10 13 -16z
m63 -21 c3 -8 -1 -12 -9 -9 -7 2 -15 10 -17 17 -3 8 1 12 9 9 7 -2 15 -10 17
-17z m2652 9 c0 -5 -4 -10 -10 -10 -5 0 -10 5 -10 10 0 6 5 10 10 10 6 0 10
-4 10 -10z m-2587 -26 c-4 -10 -9 -12 -15 -6 -12 12 -1 35 12 27 5 -3 6 -13 3
-21z m-133 -14 c0 -5 -9 -10 -20 -10 -11 0 -20 5 -20 10 0 6 9 10 20 10 11 0
20 -4 20 -10z m38 -19 c3 -8 -1 -12 -9 -9 -7 2 -15 10 -17 17 -3 8 1 12 9 9 7
-2 15 -10 17 -17z m2742 -20 c-6 -12 -15 -19 -21 -16 -13 8 -11 29 3 43 18 18
32 -2 18 -27z m-159 -17 c12 -14 11 -16 -5 -13 -11 2 -21 10 -24 17 -5 17 13
15 29 -4z m99 7 c0 -5 -6 -21 -14 -36 -17 -33 -31 -16 -15 19 12 25 29 35 29
17z m159 -23 c-10 -7 -11 -11 -3 -14 16 -7 5 -44 -12 -44 -8 0 -14 -9 -14 -20
0 -30 -17 -24 -23 9 -4 19 -15 32 -31 38 -19 6 -23 12 -16 23 8 12 13 13 30 3
27 -17 30 -16 30 8 0 14 5 19 15 16 8 -4 18 -1 22 5 5 9 8 8 11 -1 2 -7 -2
-18 -9 -23z m-2967 -10 c-3 -12 -1 -19 4 -15 5 3 17 -8 26 -24 19 -32 6 -51
-14 -19 -7 11 -21 20 -30 20 -20 0 -23 22 -7 51 13 25 29 16 21 -13z m98 17
c0 -8 -4 -15 -10 -15 -5 0 -10 7 -10 15 0 8 5 15 10 15 6 0 10 -7 10 -15z
m2645 -4 c3 -5 1 -12 -5 -16 -5 -3 -10 1 -10 9 0 18 6 21 15 7z m-2521 -26 c3
-8 1 -15 -4 -15 -6 0 -10 7 -10 15 0 8 2 15 4 15 2 0 6 -7 10 -15z m926 -11
c53 -21 80 -66 80 -133 l0 -51 -245 0 c-231 0 -245 1 -255 19 -7 15 -6 23 6
35 13 14 47 16 220 16 171 0 204 2 204 14 0 8 -10 22 -22 30 -18 13 -56 16
-204 16 -103 0 -194 -5 -212 -11 -62 -21 -81 -95 -38 -146 l24 -28 204 -5
c233 -6 250 -11 294 -86 22 -37 26 -53 22 -95 -6 -59 -30 -96 -84 -126 -37
-21 -50 -23 -244 -23 -176 0 -210 3 -239 18 -44 22 -71 73 -71 134 l0 48 238
0 c192 0 242 -3 258 -14 15 -12 17 -18 8 -33 -10 -16 -31 -18 -223 -21 -219
-3 -230 -5 -194 -44 15 -16 35 -18 214 -18 124 0 207 4 222 11 54 25 66 104
22 148 -25 26 -26 26 -228 31 -232 6 -253 12 -295 90 -39 74 -21 150 50 203
40 30 80 35 270 36 141 1 186 -2 218 -15z m874 -130 l126 -146 0 146 0 146 95
0 95 0 0 -295 0 -295 -97 1 -98 0 -155 180 c-152 177 -155 180 -158 231 -3 43
-1 50 11 40 7 -6 85 -95 173 -197 l159 -184 53 -1 52 0 0 225 0 225 -35 0 -35
0 -2 -194 -3 -194 -168 194 -169 194 -49 0 -49 0 0 -225 0 -225 30 0 30 0 0
97 0 97 35 -34 35 -34 0 -98 0 -98 -100 0 -100 0 0 295 0 295 99 0 98 0 127
-146z m-1914 124 c-1 -17 -25 -49 -32 -43 -10 11 5 55 18 55 8 0 14 -6 14 -12z
m58 -13 c6 -14 8 -25 4 -25 -12 0 -32 23 -32 37 0 22 16 15 28 -12z m92 15 c0
-5 -4 -10 -10 -10 -5 0 -10 5 -10 10 0 6 5 10 10 10 6 0 10 -4 10 -10z m2582
-12 c-7 -7 -12 -8 -12 -2 0 14 12 26 19 19 2 -3 -1 -11 -7 -17z m-2592 -18 c0
-5 -4 -10 -10 -10 -5 0 -10 5 -10 10 0 6 5 10 10 10 6 0 10 -4 10 -10z m-244
-15 c4 -8 12 -15 20 -15 8 0 14 -7 14 -15 0 -8 -4 -15 -10 -15 -5 0 -10 -5
-10 -11 0 -8 4 -8 14 0 7 6 21 9 30 5 22 -8 21 -36 -1 -33 -36 3 -43 -2 -44
-28 l0 -28 -10 25 c-6 14 -8 35 -6 47 2 13 -2 28 -9 34 -16 13 -19 49 -4 49 6
0 13 -7 16 -15z m2794 5 c0 -5 -5 -10 -11 -10 -5 0 -7 5 -4 10 3 6 8 10 11 10
2 0 4 -4 4 -10z m50 -5 c0 -8 -4 -15 -10 -15 -5 0 -10 7 -10 15 0 8 5 15 10
15 6 0 10 -7 10 -15z m30 -3 c0 -24 35 -58 45 -43 9 16 25 13 25 -4 0 -11 -11
-15 -41 -15 -37 0 -40 2 -34 21 5 15 4 19 -4 15 -7 -5 -11 2 -11 18 0 14 5 26
10 26 6 0 10 -8 10 -18z m-214 -29 c-11 -11 -19 6 -11 24 8 17 8 17 12 0 3
-10 2 -21 -1 -24z m144 -3 c-12 -23 -30 -27 -30 -7 0 17 10 27 27 27 11 0 11
-5 3 -20z m-2690 -15 c0 -8 -4 -15 -10 -15 -5 0 -10 7 -10 15 0 8 5 15 10 15
6 0 10 -7 10 -15z m130 5 c0 -5 -5 -10 -11 -10 -5 0 -7 5 -4 10 3 6 8 10 11
10 2 0 4 -4 4 -10z m70 -26 c0 -8 -4 -12 -10 -9 -5 3 -10 10 -10 16 0 5 5 9
10 9 6 0 10 -7 10 -16z m2290 6 c0 -5 -7 -10 -16 -10 -8 0 -12 5 -9 10 3 6 10
10 16 10 5 0 9 -4 9 -10z m130 0 c0 -5 -5 -10 -11 -10 -5 0 -7 5 -4 10 3 6 8
10 11 10 2 0 4 -4 4 -10z m-2580 -11 c0 -8 5 -8 15 1 12 10 15 9 15 -7 0 -15
-6 -20 -22 -19 -22 1 -40 36 -19 36 6 0 11 -5 11 -11z m2700 -4 c0 -9 -7 -18
-15 -21 -11 -5 -12 -10 -3 -24 9 -14 7 -23 -10 -45 -12 -15 -22 -34 -22 -41 0
-8 -4 -14 -10 -14 -18 0 -11 35 12 59 19 21 20 24 5 33 -15 8 -16 12 -2 38 16
32 45 41 45 15z m-2750 -26 c0 -5 -4 -9 -10 -9 -5 0 -10 7 -10 16 0 8 5 12 10
9 6 -3 10 -10 10 -16z m2803 -26 c-6 -54 -23 -83 -23 -39 0 21 -4 27 -16 22
-12 -5 -14 -1 -9 17 7 21 31 47 46 47 3 0 4 -21 2 -47z m-123 28 c0 -12 -20
-25 -27 -18 -7 7 6 27 18 27 5 0 9 -4 9 -9z m-2700 -33 c11 -18 19 -40 17 -49
-5 -20 17 -51 34 -47 7 2 15 -6 17 -17 3 -16 1 -18 -9 -7 -25 23 -49 15 -49
-18 0 -16 -4 -30 -10 -30 -5 0 -10 3 -11 8 0 4 -2 23 -5 43 -3 24 1 40 11 49
11 9 12 17 4 31 -16 30 -29 22 -29 -18 0 -29 -3 -34 -10 -23 -14 22 -8 110 8
110 7 0 21 -15 32 -32z m2440 22 c0 -5 -2 -10 -4 -10 -3 0 -8 5 -11 10 -3 6
-1 10 4 10 6 0 11 -4 11 -10z m-2382 -41 c4 -40 -13 -30 -24 15 -5 22 -4 28 7
24 8 -2 15 -20 17 -39z m2497 23 c0 -18 -20 -15 -23 4 -3 10 1 15 10 12 7 -3
13 -10 13 -16z m80 -4 c-19 -11 -30 -5 -21 11 4 6 14 7 22 4 15 -5 14 -7 -1
-15z m-2495 -24 c0 -8 -4 -12 -10 -9 -5 3 -10 10 -10 16 0 5 5 9 10 9 6 0 10
-7 10 -16z m2549 -26 c-7 -13 -14 -18 -16 -11 -3 7 1 22 8 35 7 13 14 18 16
11 3 -7 -1 -22 -8 -35z m-48 -11 c-14 -15 -21 -17 -21 -8 0 21 33 56 38 41 3
-7 -5 -22 -17 -33z m-2461 18 c0 -8 -7 -15 -15 -15 -8 0 -15 7 -15 15 0 8 7
15 15 15 8 0 15 -7 15 -15z m2592 -47 c-4 -18 -12 -32 -16 -30 -4 2 -13 -3
-19 -11 -15 -18 -55 -28 -63 -16 -3 5 3 12 13 16 26 10 63 53 70 81 5 21 7 22
15 9 5 -10 5 -31 0 -49z m-2672 21 c27 -37 19 -52 -9 -18 -18 22 -28 49 -17
49 3 0 14 -14 26 -31z m158 -4 c0 -13 -4 -22 -9 -20 -9 6 -8 45 2 45 4 0 7
-11 7 -25z m2422 -31 c0 -17 -22 -14 -28 4 -2 7 3 12 12 12 9 0 16 -7 16 -16z
m-186 -15 c-3 -5 -10 -7 -15 -3 -5 3 -7 10 -3 15 3 5 10 7 15 3 5 -3 7 -10 3
-15z m146 2 c0 -6 -4 -13 -10 -16 -5 -3 -10 1 -10 9 0 9 5 16 10 16 6 0 10 -4
10 -9z m-210 -16 c0 -8 -4 -15 -10 -15 -5 0 -10 7 -10 15 0 8 5 15 10 15 6 0
10 -7 10 -15z m95 5 c-3 -5 -11 -10 -16 -10 -6 0 -7 5 -4 10 3 6 11 10 16 10
6 0 7 -4 4 -10z m255 -5 c0 -2 -8 -20 -17 -40 -10 -22 -19 -31 -24 -24 -8 14
-39 5 -39 -11 0 -5 7 -10 15 -10 17 0 20 -25 5 -35 -5 -3 -10 -1 -10 4 0 6
-13 11 -30 11 -42 0 -39 25 5 46 19 9 45 27 58 40 20 22 37 30 37 19z m-2640
-14 c0 -6 -9 -16 -19 -23 -17 -12 -18 -20 -11 -51 6 -28 5 -37 -5 -37 -15 0
-22 19 -27 70 -2 28 0 34 14 32 9 -1 19 2 23 8 8 13 25 13 25 1z m-82 -25 c3
-12 -1 -17 -10 -14 -7 3 -15 13 -16 22 -3 12 1 17 10 14 7 -3 15 -13 16 -22z
m2546 16 c2 -4 1 -14 -4 -22 -7 -11 -12 -12 -21 -3 -6 6 -8 16 -5 22 8 13 23
14 30 3z m-2224 -28 c0 -8 -4 -12 -10 -9 -5 3 -10 10 -10 16 0 5 5 9 10 9 6 0
10 -7 10 -16z m2250 7 c0 -5 -7 -14 -15 -21 -16 -14 -18 -10 -9 14 6 17 24 22
24 7z m-2410 -17 c0 -8 -4 -12 -10 -9 -5 3 -10 10 -10 16 0 5 5 9 10 9 6 0 10
-7 10 -16z m2426 -11 c-10 -10 -19 5 -10 18 6 11 8 11 12 0 2 -7 1 -15 -2 -18z
m-2308 -2 c3 -8 -1 -12 -9 -9 -7 2 -15 10 -17 17 -3 8 1 12 9 9 7 -2 15 -10
17 -17z m1101 -5 c8 -6 20 -25 27 -41 27 -65 -14 -127 -86 -129 -35 -1 -47 4
-71 32 -18 20 -29 43 -29 61 0 32 32 78 64 91 24 10 75 3 95 -14z m-1249 8 c0
-11 -28 -33 -34 -27 -10 10 -7 25 4 18 6 -3 10 -1 10 4 0 6 5 11 10 11 6 0 10
-3 10 -6z m-130 -23 c0 -10 7 -24 15 -31 19 -16 19 -40 0 -40 -18 0 -49 56
-41 76 8 20 26 17 26 -5z m2440 10 c0 -12 -20 -25 -27 -18 -7 7 6 27 18 27 5
0 9 -4 9 -9z m60 -11 c0 -5 -4 -10 -10 -10 -5 0 -10 5 -10 10 0 6 5 10 10 10
6 0 10 -4 10 -10z m-2200 -25 c7 -9 10 -18 7 -22 -8 -7 -37 15 -37 28 0 14 16
11 30 -6z m2050 11 c0 -3 -4 -8 -10 -11 -5 -3 -10 -1 -10 4 0 6 5 11 10 11 6
0 10 -2 10 -4z m95 -6 c-3 -5 -11 -10 -16 -10 -6 0 -7 5 -4 10 3 6 11 10 16
10 6 0 7 -4 4 -10z m115 6 c0 -3 -4 -8 -10 -11 -5 -3 -10 -1 -10 4 0 6 5 11
10 11 6 0 10 -2 10 -4z m-2470 -10 c0 -3 -4 -8 -10 -11 -5 -3 -10 -1 -10 4 0
6 5 11 10 11 6 0 10 -2 10 -4z m90 -3 c-1 -18 -19 -35 -29 -28 -9 5 -9 10 0
21 12 15 29 19 29 7z m45 -3 c3 -5 2 -10 -4 -10 -5 0 -13 5 -16 10 -3 6 -2 10
4 10 5 0 13 -4 16 -10z m2405 -15 c0 -8 -4 -15 -10 -15 -5 0 -10 7 -10 15 0 8
5 15 10 15 6 0 10 -7 10 -15z m-2560 -21 c0 -8 -7 -14 -15 -14 -15 0 -21 21
-9 33 10 9 24 -2 24 -19z m2170 17 c0 -5 -7 -14 -15 -21 -12 -10 -15 -10 -15
2 0 8 3 18 7 21 9 10 23 9 23 -2z m270 -4 c0 -7 -7 -22 -16 -33 -15 -19 -15
-18 -11 4 3 12 1 22 -4 22 -5 0 -9 5 -9 10 0 6 9 10 20 10 11 0 20 -6 20 -13z
m63 0 c4 3 9 -1 13 -10 3 -9 12 -13 20 -10 25 9 15 -24 -12 -42 -26 -17 -27
-17 -22 3 4 12 0 26 -8 33 -12 9 -14 5 -15 -25 -2 -48 -3 -53 -11 -62 -5 -4
-8 -16 -8 -26 0 -10 -7 -21 -16 -25 -12 -4 -13 -7 -3 -14 8 -4 10 -11 6 -15
-3 -4 -14 -1 -24 7 -15 12 -16 12 -11 -3 9 -22 -17 -57 -32 -42 -8 8 -8 18 1
37 10 23 9 30 -6 47 -14 15 -16 23 -7 32 15 15 42 2 42 -22 0 -25 15 -26 25
-2 9 21 26 92 26 112 1 32 9 43 23 31 7 -6 16 -8 19 -4z m-2443 -28 c0 -20
-15 -26 -25 -9 -9 15 3 43 15 35 5 -3 10 -15 10 -26z m2330 21 c0 -5 -4 -10
-10 -10 -5 0 -10 5 -10 10 0 6 5 10 10 10 6 0 10 -4 10 -10z m-2163 -26 c-9
-9 -28 6 -21 18 4 6 10 6 17 -1 6 -6 8 -13 4 -17z m2083 16 c0 -12 -40 -33
-48 -25 -4 4 2 13 12 21 23 16 36 18 36 4z m-2310 -41 c0 19 18 12 25 -9 7
-22 31 -27 37 -8 3 7 10 -10 18 -38 7 -27 16 -53 20 -59 12 -18 33 -95 28
-100 -3 -3 -18 11 -34 32 -15 21 -20 32 -11 24 12 -9 17 -10 17 -2 0 6 -7 14
-15 17 -8 4 -15 12 -15 20 0 8 -9 14 -20 14 -16 0 -20 7 -20 30 0 20 -6 33
-17 37 -22 7 -63 43 -63 55 0 5 11 1 25 -8 15 -10 25 -12 25 -5z m160 -3 c0
-8 -4 -17 -9 -21 -12 -7 -24 12 -16 25 9 15 25 12 25 -4z m-42 -19 c2 -12 -1
-15 -12 -11 -19 7 -22 38 -3 32 6 -3 13 -12 15 -21z m2227 13 c3 -5 1 -10 -4
-10 -6 0 -11 5 -11 10 0 6 2 10 4 10 3 0 8 -4 11 -10z m65 -15 c0 -5 -11 -11
-24 -12 -17 -1 -23 3 -20 11 6 15 44 16 44 1z m-2221 -27 c11 -32 7 -49 -8
-32 -13 14 -23 64 -12 64 5 0 14 -14 20 -32z m2322 4 c-12 -23 -41 -48 -41
-35 0 5 7 19 16 31 19 27 39 30 25 4z m-2253 -11 c3 -8 -1 -12 -9 -9 -7 2 -15
10 -17 17 -3 8 1 12 9 9 7 -2 15 -10 17 -17z m2079 4 c8 -9 13 -19 10 -22 -6
-5 -37 21 -37 31 0 10 11 6 27 -9z m-48 -29 c0 -7 -2 -6 -6 2 -2 6 -9 10 -14
6 -5 -3 -9 2 -9 12 0 13 3 14 15 4 8 -7 15 -18 14 -24z m-89 20 c0 -3 -4 -8
-10 -11 -5 -3 -10 -1 -10 4 0 6 5 11 10 11 6 0 10 -2 10 -4z m-2070 -22 c0
-14 -3 -14 -15 -4 -8 7 -15 14 -15 16 0 2 7 4 15 4 8 0 15 -7 15 -16z m80 -29
c7 -9 10 -18 7 -22 -8 -7 -37 15 -37 28 0 14 16 11 30 -6z m130 -1 c0 -17 -22
-14 -28 4 -2 7 3 12 12 12 9 0 16 -7 16 -16z m-169 -9 c-1 -15 -24 -12 -29 3
-3 9 2 13 12 10 10 -1 17 -7 17 -13z m2057 -7 c-4 -27 -28 -36 -28 -10 0 20 8
32 22 32 5 0 8 -10 6 -22z m-1930 -16 c2 -12 -1 -22 -7 -22 -6 0 -11 4 -11 9
0 5 -3 17 -7 27 -4 12 -2 15 8 12 8 -2 15 -14 17 -26z m2061 19 c19 -12 4 -33
-22 -29 -12 1 -27 -1 -34 -5 -6 -4 -14 -3 -18 2 -3 5 7 16 22 24 35 19 35 19
52 8z m-239 -9 c0 -13 -12 -22 -22 -16 -10 6 -1 24 13 24 5 0 9 -4 9 -8z
m-1857 -52 c9 0 17 -4 17 -8 0 -5 12 -14 26 -21 15 -6 24 -15 20 -18 -10 -11
-116 48 -116 65 0 13 2 13 18 -1 10 -10 26 -17 35 -17z m1707 26 c0 -3 -4 -8
-10 -11 -5 -3 -10 -1 -10 4 0 6 5 11 10 11 6 0 10 -2 10 -4z m-1787 -38 c-8
-44 -12 -47 -29 -23 -13 17 -13 21 1 31 8 6 12 14 8 17 -3 4 1 7 10 7 13 0 15
-7 10 -32z m327 12 c0 -5 -4 -10 -9 -10 -6 0 -13 5 -16 10 -3 6 1 10 9 10 9 0
16 -4 16 -10z m1500 1 c0 -12 -20 -25 -27 -18 -7 7 6 27 18 27 5 0 9 -4 9 -9z
m150 -37 c0 -7 6 -14 13 -17 7 -2 8 -8 3 -13 -5 -5 -11 -4 -13 4 -3 6 -11 12
-18 12 -14 0 -27 38 -18 53 7 11 33 -20 33 -39z m120 26 c0 -6 -8 -13 -17 -16
-10 -3 -26 -10 -35 -15 -13 -7 -18 -5 -18 4 0 14 34 35 58 36 6 1 12 -4 12 -9z
m90 -25 c-13 -14 -31 -25 -40 -25 -17 0 -25 36 -9 45 5 4 9 1 9 -4 0 -16 26
-13 40 4 7 9 15 13 18 10 3 -3 -5 -16 -18 -30z m-1860 -7 c0 -12 -14 -10 -28
4 -19 19 -14 29 8 16 11 -7 20 -16 20 -20z m-272 3 c3 -8 -1 -12 -9 -9 -7 2
-15 10 -17 17 -3 8 1 12 9 9 7 -2 15 -10 17 -17z m402 9 c0 -5 -4 -10 -10 -10
-5 0 -10 5 -10 10 0 6 5 10 10 10 6 0 10 -4 10 -10z m1420 2 c0 -13 -12 -22
-22 -16 -10 6 -1 24 13 24 5 0 9 -4 9 -8z m-1650 -12 c0 -5 -4 -10 -9 -10 -6
0 -13 5 -16 10 -3 6 1 10 9 10 9 0 16 -4 16 -10z m-197 -24 c6 -15 -1 -26 -15
-26 -4 0 -8 9 -8 20 0 23 15 27 23 6z m86 -17 c13 -38 13 -39 2 -39 -13 0 -43
49 -36 60 11 18 23 10 34 -21z m1990 -6 c-4 -32 -16 -53 -32 -53 -8 0 -7 4 0
11 9 9 8 15 -3 26 -11 12 -12 18 -3 29 20 24 41 17 38 -13z m-2027 -15 c-1
-10 8 -18 23 -22 22 -6 36 -26 18 -26 -22 1 -88 30 -91 40 -3 8 0 10 7 6 6 -4
14 0 17 9 8 20 30 14 26 -7z m118 12 c0 -5 -4 -10 -10 -10 -5 0 -10 5 -10 10
0 6 5 10 10 10 6 0 10 -4 10 -10z m50 -11 c0 -6 -4 -7 -10 -4 -5 3 -10 11 -10
16 0 6 5 7 10 4 6 -3 10 -11 10 -16z m1456 -6 c-10 -10 -19 5 -10 18 6 11 8
11 12 0 2 -7 1 -15 -2 -18z m214 17 c0 -5 -4 -10 -10 -10 -5 0 -10 5 -10 10 0
6 5 10 10 10 6 0 10 -4 10 -10z m130 1 c0 -12 -20 -25 -27 -18 -7 7 6 27 18
27 5 0 9 -4 9 -9z m-400 -11 c0 -5 -5 -10 -11 -10 -5 0 -7 5 -4 10 3 6 8 10
11 10 2 0 4 -4 4 -10z m140 6 c0 -11 -19 -15 -25 -6 -3 5 1 10 9 10 9 0 16 -2
16 -4z m-1610 -32 c0 -16 -26 -19 -35 -4 -3 6 -4 14 0 20 8 13 35 1 35 -16z
m1830 18 c0 -11 -51 -35 -58 -28 -3 3 1 12 8 21 13 16 50 21 50 7z m-1705 -12
c3 -5 2 -10 -4 -10 -5 0 -13 5 -16 10 -3 6 -2 10 4 10 5 0 13 -4 16 -10z
m1513 -17 c-2 -10 -10 -18 -18 -18 -8 0 -16 8 -18 18 -2 12 3 17 18 17 15 0
20 -5 18 -17z m98 -7 c8 -8 14 -19 14 -25 0 -7 14 -9 35 -7 37 5 55 -8 36 -27
-9 -9 -14 -8 -20 2 -5 7 -14 10 -20 7 -18 -11 -71 4 -71 20 0 8 -9 14 -20 14
-20 0 -26 11 -13 23 11 12 44 8 59 -7z m134 -1 c0 -8 -7 -15 -15 -15 -16 0
-20 12 -8 23 11 12 23 8 23 -8z m-1840 -5 c0 -5 -4 -10 -10 -10 -5 0 -10 5
-10 10 0 6 5 10 10 10 6 0 10 -4 10 -10z m515 0 c3 -5 -1 -10 -9 -10 -9 0 -16
5 -16 10 0 6 4 10 9 10 6 0 13 -4 16 -10z m735 6 c0 -3 -4 -8 -10 -11 -5 -3
-10 -1 -10 4 0 6 5 11 10 11 6 0 10 -2 10 -4z m-1360 -16 c0 -5 -2 -10 -4 -10
-3 0 -8 5 -11 10 -3 6 -1 10 4 10 6 0 11 -4 11 -10z m58 -1 c-6 -11 25 -39 44
-39 10 0 21 -7 25 -15 9 -24 -3 -28 -30 -10 -14 8 -29 15 -33 13 -5 -2 -20 5
-34 15 l-24 17 23 0 c17 0 22 4 17 16 -3 9 -1 14 5 12 6 -2 9 -6 7 -9z m1372
7 c0 -3 -4 -8 -10 -11 -5 -3 -10 -1 -10 4 0 6 5 11 10 11 6 0 10 -2 10 -4z
m30 -6 c0 -5 -4 -10 -10 -10 -5 0 -10 5 -10 10 0 6 5 10 10 10 6 0 10 -4 10
-10z m180 -4 c0 -10 -60 -70 -64 -65 -11 11 7 50 20 45 8 -3 14 1 14 9 0 8 7
15 15 15 8 0 15 -2 15 -4z m-1444 -21 c18 -15 18 -15 -10 -13 -16 2 -31 9 -34
16 -5 17 20 15 44 -3z m1564 -6 c0 -5 -13 -9 -30 -9 -32 0 -41 16 -12 22 21 5
42 -1 42 -13z m-1499 -22 c5 -20 4 -27 -7 -27 -8 0 -14 6 -14 14 0 8 -3 22 -7
32 -4 11 -2 15 7 12 8 -2 17 -16 21 -31z m1289 17 c0 -8 -4 -12 -10 -9 -5 3
-10 10 -10 16 0 5 5 9 10 9 6 0 10 -7 10 -16z m-1225 -14 c0 -7 -6 -15 -12
-17 -8 -3 -13 4 -13 17 0 13 5 20 13 18 6 -3 12 -11 12 -18z m505 10 c0 -5 -4
-10 -10 -10 -5 0 -10 5 -10 10 0 6 5 10 10 10 6 0 10 -4 10 -10z m430 -4 c0
-3 -4 -8 -10 -11 -5 -3 -10 -1 -10 4 0 6 5 11 10 11 6 0 10 -2 10 -4z m-795
-16 c11 -17 -5 -32 -21 -19 -7 6 -11 15 -8 20 7 12 21 11 29 -1z m895 2 c0
-13 -12 -22 -22 -16 -10 6 -1 24 13 24 5 0 9 -4 9 -8z m418 -9 c-5 -25 -28
-28 -28 -4 0 12 6 21 16 21 9 0 14 -7 12 -17z m67 7 c3 -6 -1 -13 -10 -16 -19
-8 -30 0 -20 15 8 14 22 14 30 1z m-1680 -10 c3 -5 -1 -10 -9 -10 -9 0 -16 5
-16 10 0 6 4 10 9 10 6 0 13 -4 16 -10z m1315 2 c0 -13 -12 -22 -22 -16 -10 6
-1 24 13 24 5 0 9 -4 9 -8z m175 -2 c3 -5 17 -10 31 -10 13 0 24 -4 24 -8 0
-5 8 -9 18 -9 55 1 83 -4 77 -13 -3 -5 -24 -10 -45 -10 -21 0 -42 5 -45 10 -8
12 -16 12 -34 1 -10 -7 -12 -14 -5 -23 5 -7 9 -22 9 -33 0 -16 -7 -20 -38 -20
-29 0 -42 -6 -60 -28 -16 -20 -34 -29 -69 -33 -35 -5 -48 -3 -48 6 0 7 -8 10
-20 7 -21 -5 -45 16 -36 31 3 6 21 4 43 -4 54 -19 87 -17 108 6 10 11 16 23
12 26 -3 3 -10 -4 -17 -15 -6 -12 -15 -19 -20 -16 -6 4 -3 17 6 31 13 18 13
24 3 24 -10 0 -10 3 -1 12 10 10 15 10 22 -2 8 -12 10 -12 16 3 8 22 26 22 22
0 -2 -12 6 -17 30 -20 l32 -4 -25 47 c-14 26 -25 49 -25 50 0 9 29 3 35 -6z
m-1010 -10 c3 -5 1 -10 -4 -10 -6 0 -11 5 -11 10 0 6 2 10 4 10 3 0 8 -4 11
-10z m375 0 c0 -5 -5 -10 -11 -10 -5 0 -7 5 -4 10 3 6 8 10 11 10 2 0 4 -4 4
-10z m-806 -48 c-8 -2 -12 -8 -9 -13 4 -5 1 -9 -4 -9 -6 0 -11 17 -11 38 l0
37 20 -25 c16 -21 17 -26 4 -28z m140 27 c-3 -5 -10 -7 -15 -3 -5 3 -7 10 -3
15 3 5 10 7 15 3 5 -3 7 -10 3 -15z m446 11 c0 -5 -4 -10 -10 -10 -5 0 -10 5
-10 10 0 6 5 10 10 10 6 0 10 -4 10 -10z m390 0 c0 -5 -7 -10 -16 -10 -8 0
-12 5 -9 10 3 6 10 10 16 10 5 0 9 -4 9 -10z m-1021 -13 c6 -8 8 -17 5 -20 -9
-8 -44 11 -44 23 0 15 26 12 39 -3z m103 -19 c-9 -9 -15 -9 -24 0 -10 10 -10
15 2 22 20 12 38 -6 22 -22z m768 22 c0 -5 -6 -10 -14 -10 -8 0 -21 -3 -30 -6
-9 -3 -16 -1 -16 4 0 9 9 13 53 21 4 0 7 -3 7 -9z m513 -10 c-3 -11 -9 -20
-14 -20 -5 0 -9 9 -9 20 0 11 6 20 14 20 9 0 12 -7 9 -20z m-403 0 c0 -5 -7
-10 -16 -10 -8 0 -12 5 -9 10 3 6 10 10 16 10 5 0 9 -4 9 -10z m163 -12 c7
-25 3 -33 -12 -23 -13 8 -15 45 -2 45 5 0 11 -10 14 -22z m-918 2 c3 -5 -1
-10 -9 -10 -8 0 -18 5 -21 10 -3 6 1 10 9 10 8 0 18 -4 21 -10z m1060 0 c-3
-5 -10 -10 -16 -10 -5 0 -9 5 -9 10 0 6 7 10 16 10 8 0 12 -4 9 -10z m-895 -8
c0 -13 -12 -22 -22 -16 -10 6 -1 24 13 24 5 0 9 -4 9 -8z m-216 -24 c-9 -30
-9 -31 -33 -23 -27 8 -27 25 0 25 11 0 17 5 14 10 -3 6 1 10 10 10 12 0 15 -6
9 -22z m141 13 c10 -17 -12 -21 -25 -6 -10 12 -10 15 3 15 9 0 18 -4 22 -9z
m153 -9 c2 -7 -6 -12 -17 -12 -21 0 -27 11 -14 24 9 9 26 2 31 -12z m752 -2
c0 -21 -24 -28 -35 -10 -8 14 3 30 21 30 8 0 14 -9 14 -20z m-960 0 c0 -5 -4
-10 -10 -10 -5 0 -10 5 -10 10 0 6 5 10 10 10 6 0 10 -4 10 -10z m270 0 c0 -5
-4 -10 -10 -10 -5 0 -10 5 -10 10 0 6 5 10 10 10 6 0 10 -4 10 -10z m346 -17
c-10 -10 -19 5 -10 18 6 11 8 11 12 0 2 -7 1 -15 -2 -18z m444 12 c0 -8 -7
-15 -15 -15 -8 0 -15 7 -15 15 0 8 7 15 15 15 8 0 15 -7 15 -15z m240 5 c0
-12 -28 -25 -36 -17 -9 9 6 27 22 27 8 0 14 -5 14 -10z m-860 -10 c0 -5 -4
-10 -9 -10 -6 0 -13 5 -16 10 -3 6 1 10 9 10 9 0 16 -4 16 -10z m90 0 c0 -5
-4 -10 -10 -10 -5 0 -10 5 -10 10 0 6 5 10 10 10 6 0 10 -4 10 -10z m240 0 c0
-5 -7 -10 -16 -10 -8 0 -12 5 -9 10 3 6 10 10 16 10 5 0 9 -4 9 -10z m-922
-19 c3 -8 -1 -12 -9 -9 -7 2 -15 10 -17 17 -3 8 1 12 9 9 7 -2 15 -10 17 -17z
m540 8 c-2 -6 -7 -10 -11 -10 -4 1 -17 1 -29 1 -19 0 -20 2 -8 10 20 13 53 13
48 -1z m322 1 c0 -5 -4 -10 -10 -10 -5 0 -10 5 -10 10 0 6 5 10 10 10 6 0 10
-4 10 -10z m400 0 c0 -5 -7 -10 -15 -10 -8 0 -15 5 -15 10 0 6 7 10 15 10 8 0
15 -4 15 -10z m-804 -14 c15 -16 18 -26 6 -26 -4 0 -13 9 -20 20 -14 23 -7 26
14 6z m-291 -7 c4 -6 5 -12 4 -13 -8 -7 -69 7 -69 15 0 13 57 11 65 -2z m135
1 c0 -5 -16 -10 -35 -10 -19 0 -35 5 -35 10 0 6 16 10 35 10 19 0 35 -4 35
-10z m710 0 c10 0 11 -3 3 -11 -14 -14 -55 -8 -61 10 -4 10 1 12 19 8 13 -4
31 -7 39 -7z m-924 -19 c-3 -4 4 -12 15 -19 11 -7 19 -8 19 -2 0 17 25 11 50
-12 27 -25 10 -39 -18 -16 -9 8 -28 15 -41 16 -24 1 -65 35 -54 45 7 8 34 -4
29 -12z m134 9 c0 -5 -6 -10 -14 -10 -8 0 -18 5 -21 10 -3 6 3 10 14 10 12 0
21 -4 21 -10z m150 0 c0 -5 -7 -10 -15 -10 -8 0 -15 5 -15 10 0 6 7 10 15 10
8 0 15 -4 15 -10z m520 0 c0 -5 -7 -10 -15 -10 -8 0 -15 5 -15 10 0 6 7 10 15
10 8 0 15 -4 15 -10z m-473 -19 c10 -17 9 -20 -15 -24 -34 -7 -36 -4 -22 22
13 26 22 26 37 2z m233 9 c0 -5 -7 -10 -15 -10 -8 0 -15 5 -15 10 0 6 7 10 15
10 8 0 15 -4 15 -10z m171 -13 c-13 -13 -26 -3 -16 12 3 6 11 8 17 5 6 -4 6
-10 -1 -17z m235 8 c-6 -18 5 -20 22 -3 9 9 16 6 30 -10 11 -12 25 -22 31 -22
11 0 47 -28 39 -31 -2 -1 -12 -3 -23 -5 -11 -1 -40 -10 -64 -19 -24 -9 -60
-18 -80 -20 -20 -2 -45 -7 -55 -11 -14 -5 -17 -4 -12 4 5 9 1 9 -18 2 -17 -6
-27 -6 -32 1 -9 16 7 28 46 35 26 4 31 3 20 -5 -13 -9 -13 -11 3 -11 9 0 17 5
17 10 0 7 13 9 33 5 34 -7 107 17 107 35 0 10 -21 14 -48 11 -16 -3 -43 30
-36 41 9 14 26 8 20 -7z m-783 -17 c33 1 47 -3 47 -12 0 -16 -60 -28 -75 -16
-5 5 -21 10 -34 12 -14 1 -27 9 -29 17 -4 11 1 12 19 6 13 -4 45 -8 72 -7z
m317 -8 c0 -5 -4 -10 -9 -10 -6 0 -13 5 -16 10 -3 6 1 10 9 10 9 0 16 -4 16
-10z m130 1 c0 -14 -18 -23 -30 -16 -6 4 -8 11 -5 16 8 12 35 12 35 0z m54
-12 c-3 -5 -10 -7 -15 -3 -5 3 -7 10 -3 15 3 5 10 7 15 3 5 -3 7 -10 3 -15z
m146 11 c0 -5 -4 -10 -10 -10 -5 0 -10 5 -10 10 0 6 5 10 10 10 6 0 10 -4 10
-10z m-375 -34 c1 -20 10 -31 38 -46 20 -11 43 -20 51 -20 22 0 16 47 -8 58
-17 9 -12 11 32 11 33 1 51 -3 47 -9 -3 -5 -13 -10 -21 -10 -17 0 -17 -5 -4
-31 6 -10 17 -19 25 -19 7 0 16 -4 19 -9 9 -14 -115 -9 -143 5 -17 9 -29 10
-35 4 -6 -6 -26 -10 -45 -9 l-36 1 38 11 c22 7 35 15 31 20 -12 12 -44 8 -60
-8 -21 -20 -34 -19 -34 3 0 13 11 21 38 28 28 7 38 15 40 32 5 31 27 22 27
-12z m445 27 c0 -5 -5 -15 -10 -23 -7 -11 -12 -12 -21 -3 -6 6 -8 16 -5 22 8
12 36 15 36 4z m-596 -18 c30 -13 36 -20 36 -46 0 -20 -4 -29 -12 -27 -7 3
-13 15 -13 29 0 21 -5 24 -37 27 -36 3 -46 11 -31 25 9 10 16 9 57 -8z m106 5
c0 -5 -9 -10 -19 -10 -11 0 -23 5 -26 10 -4 6 5 10 19 10 14 0 26 -4 26 -10z
m88 -11 c-2 -6 -8 -10 -13 -10 -5 0 -11 4 -13 10 -2 6 4 11 13 11 9 0 15 -5
13 -11z m224 -19 c-13 -11 -17 -21 -11 -27 12 -12 1 -43 -16 -43 -7 0 -19 15
-26 33 -7 17 -15 36 -17 41 -3 5 7 6 21 3 16 -5 29 -2 37 8 7 8 17 12 23 8 6
-4 2 -13 -11 -23z m95 13 c3 -7 -8 -18 -23 -23 -21 -8 -24 -14 -16 -22 19 -19
14 -28 -14 -28 -22 0 -24 3 -18 23 3 12 13 26 20 30 8 4 14 15 14 23 0 18 31
15 37 -3z m153 9 c0 -13 -12 -22 -22 -16 -10 6 -1 24 13 24 5 0 9 -4 9 -8z
m-762 -16 c35 -1 53 -7 70 -24 l24 -24 -24 4 c-13 2 -22 9 -21 15 2 8 -14 11
-45 11 -50 -1 -72 6 -72 23 0 6 5 7 11 4 6 -4 32 -8 57 -9z m442 -24 c0 -13
-12 -22 -22 -16 -10 6 -1 24 13 24 5 0 9 -4 9 -8z"/>
<path d="M2161 3130 c-1 -30 24 -48 72 -51 26 -2 47 -1 47 2 0 8 -38 19 -66
19 -12 0 -29 10 -37 23 -11 15 -16 17 -16 7z"/>
<path d="M1045 3077 c-11 -7 -25 -20 -32 -29 -7 -9 -22 -18 -32 -20 -17 -3
-18 -5 -7 -21 13 -16 17 -14 60 27 56 55 61 73 11 43z"/>
<path d="M1560 2322 c-23 -19 -23 -21 -7 -28 22 -8 40 8 35 31 -3 16 -5 16
-28 -3z"/>
<path d="M1486 2309 c19 -33 97 -139 103 -139 3 0 12 4 18 8 9 6 -9 29 -58 77
-40 39 -68 63 -63 54z"/>
<path d="M1605 2290 c9 -41 13 -50 26 -50 15 0 10 23 -12 55 l-20 30 6 -35z"/>
<path d="M1580 2281 c0 -6 5 -13 10 -16 6 -3 10 1 10 9 0 9 -4 16 -10 16 -5 0
-10 -4 -10 -9z"/>
<path d="M1860 2256 c-15 -19 -5 -36 21 -36 22 0 24 8 5 33 -12 15 -15 15 -26
3z"/>
<path d="M1480 2240 c-9 -16 -8 -20 6 -20 10 0 14 -3 11 -7 -4 -3 1 -15 10
-26 10 -11 12 -17 6 -13 -7 4 -13 3 -13 -3 0 -5 12 -8 28 -6 15 2 31 4 36 4
20 2 -18 31 -41 31 -21 0 -22 3 -13 20 11 21 6 40 -10 40 -5 0 -14 -9 -20 -20z"/>
<path d="M1520 2220 c0 -5 5 -10 11 -10 5 0 7 5 4 10 -3 6 -8 10 -11 10 -2 0
-4 -4 -4 -10z"/>
<path d="M1835 2220 c-3 -5 1 -10 10 -10 9 0 13 5 10 10 -3 6 -8 10 -10 10 -2
0 -7 -4 -10 -10z"/>
<path d="M1456 2184 c-8 -31 -3 -39 19 -31 19 8 20 31 1 46 -11 9 -15 6 -20
-15z"/>
<path d="M1848 2203 c-14 -2 -32 -11 -38 -19 -19 -22 23 -18 51 6 13 10 22 19
19 18 -3 0 -17 -3 -32 -5z"/>
<path d="M1888 2191 c-8 -11 -17 -18 -20 -15 -3 3 -9 1 -13 -5 -3 -7 2 -11 14
-11 10 0 26 -3 35 -6 18 -7 22 21 7 45 -7 10 -11 9 -23 -8z"/>
<path d="M1500 2069 c0 -5 5 -7 10 -4 6 3 10 8 10 11 0 2 -4 4 -10 4 -5 0 -10
-5 -10 -11z"/>
<path d="M1809 2069 c-14 -8 10 -25 44 -31 27 -5 27 -5 10 15 -10 11 -12 17
-5 13 6 -4 12 -3 12 2 0 10 -45 11 -61 1z"/>
<path d="M1766 2062 c-3 -5 25 -37 61 -73 48 -45 59 -53 40 -27 -15 21 -24 43
-21 52 3 9 1 16 -6 16 -6 0 -8 -6 -5 -12 4 -7 -5 2 -20 20 -27 32 -40 39 -49
24z"/>
<path d="M1560 1984 l-65 -66 68 47 c43 30 67 53 67 66 0 10 -1 19 -3 19 -1 0
-32 -30 -67 -66z"/>
<path d="M1520 2019 c0 -5 5 -7 10 -4 6 3 10 8 10 11 0 2 -4 4 -10 4 -5 0 -10
-5 -10 -11z"/>
<path d="M1615 1988 c-12 -41 -13 -43 -14 -25 -1 10 -6 15 -11 12 -8 -5 -8
-11 -1 -19 6 -7 12 -23 14 -37 4 -28 47 -41 47 -15 0 14 -12 20 -32 17 -12 -2
-9 12 7 33 8 11 15 26 15 33 0 17 -19 17 -25 1z"/>
<path d="M1630 1940 c0 -5 5 -10 10 -10 6 0 10 5 10 10 0 6 -4 10 -10 10 -5 0
-10 -4 -10 -10z"/>
<path d="M1731 1944 c0 -11 3 -14 6 -6 3 7 2 16 -1 19 -3 4 -6 -2 -5 -13z"/>
<path d="M1664 965 c-9 -23 3 -45 25 -45 25 0 34 14 26 40 -7 23 -43 27 -51 5z"/>
</g>
</svg>
